<svg xmlns="http://www.w3.org/2000/svg" viewBox="0 0 120 80" role="img"><g fill="none" stroke="#334155" stroke-width="2" stroke-linecap="round" stroke-linejoin="round"><path d="M24 40 Q62 20 98 40 Q62 60 24 40 Z" fill="#57614a" fill-opacity="0.12"/><path d="M26 40 Q62 23 96 40 Q62 57 26 40"/><path d="M40 34 l-3 -7 M52 32 l-3 -7 M64 33 l-3 -7 M76 36 l-3 -7"/><path d="M40 46 l-3 7 M52 48 l-3 7 M64 47 l-3 7 M76 44 l-3 7"/><path d="M42 28 l-7 -9 M42 52 l-7 9 M94 37 l9 -5 M94 43 l9 5"/><path d="M98 38 q10 -8 17 -6 M98 42 q10 8 17 6"/><path d="M26 40 q-14 -3 -24 -12 M26 40 q-14 0 -24 0 M26 40 q-14 3 -24 12"/></g></svg>