<svg xmlns="http://www.w3.org/2000/svg" width="1560" height="900" viewBox="0 0 1560 900">
<rect width="1560" height="900" fill="#0b111c"/>
<text x="40" y="44" fill="#e8eef7" font-size="24" font-family="Menlo,monospace" font-weight="bold">Clear Fork</text>
<text x="40" y="70" fill="#7488a5" font-size="14" font-family="Menlo,monospace">clear-fork · creek · hu8 pending · termini auto-derivable</text>
<rect x="1180" y="26" width="340" height="40" rx="20" fill="#33270f"/><text x="1350" y="52" fill="#e8b64c" font-size="16" text-anchor="middle" font-family="Menlo,monospace" font-weight="bold">PENDING FAN-OUT (PLAN SHOWN)</text>
<g>
<rect x="40" y="96" width="720" height="700" rx="10" fill="#111a29"/>
<rect x="40" y="96" width="720" height="700" rx="10" fill="none" stroke="#26354e" stroke-width="1.5"/>
<text x="58" y="130" fill="#e8b64c" font-size="17" font-family="Menlo,monospace" font-weight="bold">BEFORE</text>
<text x="58" y="152" fill="#7488a5" font-size="13" font-family="Menlo,monospace">pre-flip linework · 2 part(s) · 43.17 km · src nhd-hr</text>
<path d="M84.1 653.6 L87.2 654.4 L92.8 648.5 L113.5 658.8 L126.1 670.3 L133.5 668.4 L138.5 665.0 L142.3 656.4 L154.5 653.2 L159.0 644.0 L169.0 638.5 L177.3 631.7 L182.2 629.6 L191.1 633.1 L196.6 638.6 L199.9 649.0 L202.5 649.8 L214.2 645.7 L225.4 638.2 L231.5 636.1 L244.8 638.3 L251.5 635.6 L261.4 623.6 L261.8 617.1 L252.6 602.3 L252.6 598.7 L262.3 588.4 L268.1 571.0 L270.7 569.5 L280.2 569.5 L287.7 565.4 L287.6 563.7 L277.1 551.9 L275.3 547.3 L276.7 544.3 L279.3 542.7 L290.2 542.3 L298.6 539.8 L306.0 529.6 L306.6 518.0 L308.8 514.6 L316.7 515.2 L327.6 521.6 L341.4 535.6 L343.9 537.1 L346.5 536.3 L348.1 526.5 L350.3 521.5 L358.2 514.6 L361.6 514.9 L368.3 522.4 L372.1 522.8 L377.6 516.6 L384.2 512.3 L393.6 510.6 L398.5 508.2 L399.2 504.0 L397.4 496.0 L389.8 485.7 L388.9 466.8 L383.8 460.3 L388.4 453.5 L391.9 451.5 L398.3 452.5 L414.1 462.4 L420.5 462.4 L431.2 458.0 L432.9 455.2 L432.7 451.3 L422.1 444.4 L417.7 436.3 L418.1 411.8 L420.2 405.8 L424.0 402.7 L427.5 401.5 L438.7 401.8 L442.1 399.9 L443.0 396.8 L438.0 382.6 L438.1 379.5 L439.4 378.3 L443.9 377.6 L452.2 382.6 L456.8 385.7 L461.8 392.3 L467.8 397.7 L478.1 403.7 L487.6 405.7 L497.4 397.4 L511.3 394.5 L525.2 387.8 L531.1 382.7 L532.2 381.2 L532.2 375.1 L531.6 368.4 L529.0 363.6 L528.8 358.5 L531.0 351.5 L542.0 339.7 L549.3 336.9 L562.2 334.5 L602.0 318.9 L616.1 315.2 L621.6 310.6 L629.9 306.9 L635.7 309.0 L635.0 313.7 L637.0 319.0 L636.5 326.3 L630.3 337.0 L630.6 343.1 L637.8 349.8 L648.0 354.9 L659.3 356.5 L685.5 357.2 L692.0 351.9 L693.4 346.4 L692.0 343.6 L681.2 334.9 L678.1 334.1 L672.0 335.3 L669.5 333.8 L667.1 327.0 L670.8 318.0 L673.9 314.8 L683.3 309.8 L692.2 298.7 L713.1 285.4 L712.6 281.9 L707.7 276.6 L707.0 270.7 L709.4 268.2 L715.9 264.5 L714.1 260.5 L697.0 255.0 L695.4 249.0 L704.4 230.5 L705.3 221.7 M586.5 325.2 L587.0 325.1" fill="none" stroke="#e8b64c" stroke-width="2.5" stroke-linejoin="round" stroke-linecap="round" stroke-dasharray="10 6" opacity="1"/>
<circle cx="687.9" cy="339.3" r="7" fill="#e8b64c" stroke="#0b111c" stroke-width="2"/>
<text x="676.9" y="344.3" fill="#e8b64c" font-size="14" font-family="Menlo,monospace" font-weight="bold" text-anchor="end" paint-order="stroke" stroke="#0b111c" stroke-width="4">anchor</text>


<g><line x1="64" y1="772" x2="211.07900831926094" y2="772" stroke="#8ea2bd" stroke-width="2"/><line x1="64" y1="768" x2="64" y2="776" stroke="#8ea2bd" stroke-width="2"/><line x1="211.07900831926094" y1="768" x2="211.07900831926094" y2="776" stroke="#8ea2bd" stroke-width="2"/><text x="137.53950415963047" y="764" fill="#8ea2bd" font-size="13" text-anchor="middle" font-family="Menlo,monospace">5 km</text></g>
</g>
<g>
<rect x="800" y="96" width="720" height="700" rx="10" fill="#111a29"/>
<rect x="800" y="96" width="720" height="700" rx="10" fill="none" stroke="#26354e" stroke-width="1.5"/>
<text x="818" y="130" fill="#3a4a63" font-size="17" font-family="Menlo,monospace" font-weight="bold">AFTER</text>
<text x="818" y="152" fill="#7488a5" font-size="13" font-family="Menlo,monospace">NHD reach not traced yet — ghost = current linework</text>
<path d="M844.1 653.6 L847.2 654.4 L852.8 648.5 L873.5 658.8 L886.1 670.3 L893.5 668.4 L898.5 665.0 L902.3 656.4 L914.5 653.2 L919.0 644.0 L929.0 638.5 L937.3 631.7 L942.2 629.6 L951.1 633.1 L956.6 638.6 L959.9 649.0 L962.5 649.8 L974.2 645.7 L985.4 638.2 L991.5 636.1 L1004.8 638.3 L1011.5 635.6 L1021.4 623.6 L1021.8 617.1 L1012.6 602.3 L1012.6 598.7 L1022.3 588.4 L1028.1 571.0 L1030.7 569.5 L1040.2 569.5 L1047.7 565.4 L1047.6 563.7 L1037.1 551.9 L1035.3 547.3 L1036.7 544.3 L1039.3 542.7 L1050.2 542.3 L1058.6 539.8 L1066.0 529.6 L1066.6 518.0 L1068.8 514.6 L1076.7 515.2 L1087.6 521.6 L1101.4 535.6 L1103.9 537.1 L1106.5 536.3 L1108.1 526.5 L1110.3 521.5 L1118.2 514.6 L1121.6 514.9 L1128.3 522.4 L1132.1 522.8 L1137.6 516.6 L1144.2 512.3 L1153.6 510.6 L1158.5 508.2 L1159.2 504.0 L1157.4 496.0 L1149.8 485.7 L1148.9 466.8 L1143.8 460.3 L1148.4 453.5 L1151.9 451.5 L1158.3 452.5 L1174.1 462.4 L1180.5 462.4 L1191.2 458.0 L1192.9 455.2 L1192.7 451.3 L1182.1 444.4 L1177.7 436.3 L1178.1 411.8 L1180.2 405.8 L1184.0 402.7 L1187.5 401.5 L1198.7 401.8 L1202.1 399.9 L1203.0 396.8 L1198.0 382.6 L1198.1 379.5 L1199.4 378.3 L1203.9 377.6 L1212.2 382.6 L1216.8 385.7 L1221.8 392.3 L1227.8 397.7 L1238.1 403.7 L1247.6 405.7 L1257.4 397.4 L1271.3 394.5 L1285.2 387.8 L1291.1 382.7 L1292.2 381.2 L1292.2 375.1 L1291.6 368.4 L1289.0 363.6 L1288.8 358.5 L1291.0 351.5 L1302.0 339.7 L1309.3 336.9 L1322.2 334.5 L1362.0 318.9 L1376.1 315.2 L1381.6 310.6 L1389.9 306.9 L1395.7 309.0 L1395.0 313.7 L1397.0 319.0 L1396.5 326.3 L1390.3 337.0 L1390.6 343.1 L1397.8 349.8 L1408.0 354.9 L1419.3 356.5 L1445.5 357.2 L1452.0 351.9 L1453.4 346.4 L1452.0 343.6 L1441.2 334.9 L1438.1 334.1 L1432.0 335.3 L1429.5 333.8 L1427.1 327.0 L1430.8 318.0 L1433.9 314.8 L1443.3 309.8 L1452.2 298.7 L1473.1 285.4 L1472.6 281.9 L1467.7 276.6 L1467.0 270.7 L1469.4 268.2 L1475.9 264.5 L1474.1 260.5 L1457.0 255.0 L1455.4 249.0 L1464.4 230.5 L1465.3 221.7 M1346.5 325.2 L1347.0 325.1" fill="none" stroke="#3a4a63" stroke-width="2" stroke-linejoin="round" stroke-linecap="round"  opacity="0.45"/>
<circle cx="1447.9" cy="339.3" r="7" fill="#59d8a0" stroke="#0b111c" stroke-width="2"/>
<text x="1436.9" y="344.3" fill="#59d8a0" font-size="14" font-family="Menlo,monospace" font-weight="bold" text-anchor="end" paint-order="stroke" stroke="#0b111c" stroke-width="4">anchor</text>
<text x="1160" y="436" fill="#5b6b82" font-size="19" text-anchor="middle" font-family="Menlo,monospace">AFTER panel renders here once GEOFANOUT-1 traces this unit</text>
<rect x="808" y="702" width="704" height="94" rx="6" fill="#0b111c" opacity="0.82"/><text x="820" y="718" fill="#93a6c2" font-size="15" font-family="Menlo,monospace" paint-order="stroke" stroke="#0b111c" stroke-width="4">plan  UP   headwater  (high)</text><text x="820" y="742" fill="#93a6c2" font-size="15" font-family="Menlo,monospace" paint-order="stroke" stroke="#0b111c" stroke-width="4">plan  DOWN confluence:New River  (high)</text><text x="820" y="766" fill="#93a6c2" font-size="15" font-family="Menlo,monospace" paint-order="stroke" stroke="#0b111c" stroke-width="4">termini auto-derivable from catalog YAML</text>
<g><line x1="824" y1="680" x2="971.0790083192609" y2="680" stroke="#8ea2bd" stroke-width="2"/><line x1="824" y1="676" x2="824" y2="684" stroke="#8ea2bd" stroke-width="2"/><line x1="971.0790083192609" y1="676" x2="971.0790083192609" y2="684" stroke="#8ea2bd" stroke-width="2"/><text x="897.5395041596305" y="672" fill="#8ea2bd" font-size="13" text-anchor="middle" font-family="Menlo,monospace">5 km</text></g>
</g>
<text x="40" y="878" fill="#5b6b82" font-size="13" font-family="Menlo,monospace">GEOVALID-2 owner review pack · before/after linework · TroutSite NHD flip lane</text>
<text x="1520" y="878" fill="#5b6b82" font-size="13" text-anchor="end" font-family="Menlo,monospace">generated 2026-09-11</text>
</svg>