<svg xmlns="http://www.w3.org/2000/svg" width="1560" height="900" viewBox="0 0 1560 900">
<rect width="1560" height="900" fill="#0b111c"/>
<text x="40" y="44" fill="#e8eef7" font-size="24" font-family="Menlo,monospace" font-weight="bold">Collins River</text>
<text x="40" y="70" fill="#7488a5" font-size="14" font-family="Menlo,monospace">collins-river · river · hu8 pending · termini human review: no-endpoint-evidence</text>
<rect x="1180" y="26" width="340" height="40" rx="20" fill="#33270f"/><text x="1350" y="52" fill="#e8b64c" font-size="16" text-anchor="middle" font-family="Menlo,monospace" font-weight="bold">PENDING FAN-OUT (PLAN SHOWN)</text>
<g>
<rect x="40" y="96" width="720" height="700" rx="10" fill="#111a29"/>
<rect x="40" y="96" width="720" height="700" rx="10" fill="none" stroke="#26354e" stroke-width="1.5"/>
<text x="58" y="130" fill="#e8b64c" font-size="17" font-family="Menlo,monospace" font-weight="bold">BEFORE</text>
<text x="58" y="152" fill="#7488a5" font-size="13" font-family="Menlo,monospace">pre-flip linework · 1 part(s) · 99.4 km · src nhd-hr</text>
<path d="M436.2 124.7 L435.9 126.3 L434.0 133.1 L430.2 135.9 L424.8 136.7 L422.0 136.1 L420.0 134.9 L418.2 132.5 L416.9 128.4 L416.7 120.3 L414.6 117.3 L412.9 117.2 L411.4 118.5 L411.1 122.8 L409.7 126.9 L407.6 128.3 L405.8 128.4 L401.8 123.9 L398.9 124.0 L396.5 125.9 L395.7 129.5 L396.9 132.3 L411.4 142.1 L412.5 145.0 L412.3 147.0 L410.7 148.2 L406.0 148.1 L403.5 146.8 L396.8 141.2 L393.7 140.9 L389.3 141.8 L386.7 143.5 L379.3 153.3 L376.1 153.9 L366.7 153.5 L359.6 155.4 L350.2 160.8 L346.3 161.6 L338.3 162.3 L330.7 160.7 L326.9 160.8 L324.9 162.7 L323.4 165.4 L323.2 167.8 L324.3 170.3 L325.9 172.1 L332.6 175.7 L333.1 177.6 L332.7 179.4 L331.2 180.9 L329.2 181.2 L321.4 179.4 L317.6 179.9 L316.3 180.9 L316.0 183.4 L317.2 184.4 L318.9 184.5 L324.8 183.0 L325.6 183.7 L326.5 187.6 L325.9 190.2 L324.7 191.3 L313.9 193.5 L312.0 197.2 L312.7 200.6 L315.4 202.5 L324.4 201.3 L328.8 201.6 L333.6 202.6 L335.6 204.7 L336.8 209.4 L335.8 211.8 L330.7 214.8 L326.1 216.5 L322.8 217.9 L318.5 216.2 L314.4 211.7 L312.0 211.1 L308.5 209.2 L304.0 204.7 L301.3 203.1 L297.4 204.7 L295.2 209.2 L295.6 212.0 L300.4 218.1 L300.5 220.1 L298.0 222.1 L293.4 223.3 L290.6 225.0 L290.6 228.2 L292.3 234.6 L292.4 237.5 L287.9 247.2 L283.9 249.6 L282.8 251.0 L281.9 253.1 L281.8 253.6 L280.9 260.6 L281.1 262.3 L284.2 268.1 L286.0 269.7 L292.7 270.1 L300.2 268.5 L302.5 268.8 L303.3 270.6 L302.7 272.4 L297.6 278.7 L299.8 282.1 L306.7 288.5 L306.7 290.9 L305.8 291.8 L300.0 292.5 L298.5 294.6 L298.1 299.4 L299.9 303.2 L302.9 305.7 L303.2 307.4 L301.8 308.6 L295.3 308.2 L294.0 308.8 L293.0 311.6 L293.2 316.3 L295.8 319.6 L298.3 319.8 L300.8 318.7 L302.7 315.4 L305.4 309.4 L306.9 308.1 L308.3 308.0 L309.8 309.6 L310.6 316.9 L311.7 318.8 L317.0 320.7 L327.4 322.9 L328.7 322.9 L341.3 321.6 L343.5 323.4 L346.2 327.0 L351.2 333.7 L351.2 334.5 L350.1 335.3 L347.4 334.7 L345.2 334.0 L344.2 335.0 L345.6 350.0 L347.0 352.7 L353.8 359.8 L354.5 364.1 L353.6 365.9 L342.6 376.2 L339.9 376.6 L337.8 375.9 L331.9 370.9 L329.6 372.0 L328.5 373.6 L328.2 375.6 L330.4 379.6 L345.5 383.8 L358.2 389.3 L359.2 391.2 L355.5 399.5 L355.5 400.6 L353.4 403.5 L353.3 405.3 L359.8 405.7 L360.7 407.0 L359.3 410.1 L356.4 411.9 L353.2 411.8 L348.2 408.9 L347.6 404.0 L347.9 400.6 L348.8 392.1 L347.8 390.3 L342.3 393.1 L338.3 396.1 L335.8 400.6 L335.1 402.9 L336.1 409.0 L339.2 420.1 L341.4 427.3 L341.9 433.3 L341.3 436.0 L340.0 436.6 L339.2 435.6 L338.7 432.6 L337.0 431.4 L334.5 433.3 L330.4 438.4 L327.2 441.1 L323.7 446.9 L333.1 451.3 L335.2 452.9 L335.8 454.7 L334.5 459.7 L334.7 463.2 L333.6 468.0 L330.7 472.6 L328.2 473.9 L333.8 480.1 L334.4 482.8 L334.0 486.0 L331.8 487.6 L329.3 489.1 L330.7 492.1 L334.8 491.9 L337.1 493.8 L337.1 496.6 L335.0 504.7 L335.8 506.3 L339.2 507.1 L345.8 504.2 L349.9 501.0 L351.6 502.1 L352.3 506.7 L351.7 508.3 L350.3 509.5 L348.1 510.0 L342.9 510.3 L342.8 514.3 L343.0 516.5 L344.5 518.3 L346.3 518.9 L353.7 518.6 L355.1 520.7 L354.9 522.2 L353.5 523.5 L349.5 524.6 L341.4 522.7 L339.8 524.1 L339.8 525.0 L341.4 527.2 L344.8 529.7 L344.7 533.2 L342.3 535.8 L342.4 536.7 L346.3 539.8 L349.5 543.2 L350.2 545.5 L343.4 546.7 L340.3 548.1 L338.8 550.0 L339.4 551.1 L341.0 551.6 L349.5 550.7 L353.7 550.7 L355.1 553.8 L355.4 553.9 L358.3 555.0 L359.4 556.3 L360.2 557.1 L362.5 559.4 L362.5 559.8 L363.9 564.1 L365.6 565.8 L367.4 568.4 L365.6 574.8 L365.6 576.3 L366.5 578.4 L367.8 578.3 L370.2 575.0 L374.1 577.6 L374.5 579.1 L373.8 582.4 L372.7 584.0 L373.3 585.9 L378.0 587.5 L380.1 591.2 L379.7 595.1 L377.8 596.6 L377.8 598.7 L379.1 600.2 L381.0 602.5 L381.7 604.5 L384.6 605.0 L386.4 603.3 L389.9 606.9 L393.0 607.8 L394.2 609.9 L394.5 615.9 L395.8 617.7 L395.7 618.9 L393.8 621.5 L393.8 623.2 L395.2 627.2 L396.4 628.3 L403.4 628.7 L409.4 632.7 L408.9 634.6 L409.9 635.6 L414.5 636.8 L417.1 639.8 L418.4 642.7 L421.4 643.7 L421.1 647.7 L421.8 649.8 L421.3 651.3 L422.6 655.5 L426.3 658.3 L427.3 660.8 L429.1 661.9 L430.3 665.1 L431.8 666.9 L431.9 668.6 L435.1 674.6 L442.2 677.5 L448.9 684.8 L450.9 686.1 L453.7 686.3 L456.7 690.0 L458.3 698.1 L457.0 699.9 L456.6 705.3 L456.0 706.1 L457.4 708.0 L458.6 707.4 L459.9 708.1 L460.8 710.0 L462.3 710.8 L462.0 712.8 L462.3 714.7 L463.0 715.3 L463.0 718.2 L464.4 720.8 L466.3 722.0 L467.9 723.4 L467.6 727.6 L469.5 731.9 L470.6 734.6 L475.7 738.5 L477.7 742.8 L479.0 744.8 L477.6 747.6 L480.3 748.5 L480.6 750.3 L482.9 751.6 L483.9 753.6 L483.8 754.9 L486.3 755.9 L486.6 757.1 L485.8 758.7 L486.8 759.3 L492.9 760.0 L494.6 760.6 L496.8 763.5 L498.4 764.8 L504.9 764.3 L505.5 764.6 L506.6 768.9 L510.6 769.7 L512.1 768.1 L513.8 769.7 L516.7 770.5 L518.4 772.5 L519.1 774.8" fill="none" stroke="#e8b64c" stroke-width="2.5" stroke-linejoin="round" stroke-linecap="round"  opacity="1"/>
<circle cx="293.8" cy="270.2" r="7" fill="#e8b64c" stroke="#0b111c" stroke-width="2"/>
<text x="304.8" y="275.2" fill="#e8b64c" font-size="14" font-family="Menlo,monospace" font-weight="bold" text-anchor="start" paint-order="stroke" stroke="#0b111c" stroke-width="4">anchor</text>


<g><line x1="64" y1="772" x2="134.52472278739486" y2="772" stroke="#8ea2bd" stroke-width="2"/><line x1="64" y1="768" x2="64" y2="776" stroke="#8ea2bd" stroke-width="2"/><line x1="134.52472278739486" y1="768" x2="134.52472278739486" y2="776" stroke="#8ea2bd" stroke-width="2"/><text x="99.26236139369743" y="764" fill="#8ea2bd" font-size="13" text-anchor="middle" font-family="Menlo,monospace">5 km</text></g>
</g>
<g>
<rect x="800" y="96" width="720" height="700" rx="10" fill="#111a29"/>
<rect x="800" y="96" width="720" height="700" rx="10" fill="none" stroke="#26354e" stroke-width="1.5"/>
<text x="818" y="130" fill="#3a4a63" font-size="17" font-family="Menlo,monospace" font-weight="bold">AFTER</text>
<text x="818" y="152" fill="#7488a5" font-size="13" font-family="Menlo,monospace">NHD reach not traced yet — ghost = current linework</text>
<path d="M1196.2 124.7 L1195.9 126.3 L1194.0 133.1 L1190.2 135.9 L1184.8 136.7 L1182.0 136.1 L1180.0 134.9 L1178.2 132.5 L1176.9 128.4 L1176.7 120.3 L1174.6 117.3 L1172.9 117.2 L1171.4 118.5 L1171.1 122.8 L1169.7 126.9 L1167.6 128.3 L1165.8 128.4 L1161.8 123.9 L1158.9 124.0 L1156.5 125.9 L1155.7 129.5 L1156.9 132.3 L1171.4 142.1 L1172.5 145.0 L1172.3 147.0 L1170.7 148.2 L1166.0 148.1 L1163.5 146.8 L1156.8 141.2 L1153.7 140.9 L1149.3 141.8 L1146.7 143.5 L1139.3 153.3 L1136.1 153.9 L1126.7 153.5 L1119.6 155.4 L1110.2 160.8 L1106.3 161.6 L1098.3 162.3 L1090.7 160.7 L1086.9 160.8 L1084.9 162.7 L1083.4 165.4 L1083.2 167.8 L1084.3 170.3 L1085.9 172.1 L1092.6 175.7 L1093.1 177.6 L1092.7 179.4 L1091.2 180.9 L1089.2 181.2 L1081.4 179.4 L1077.6 179.9 L1076.3 180.9 L1076.0 183.4 L1077.2 184.4 L1078.9 184.5 L1084.8 183.0 L1085.6 183.7 L1086.5 187.6 L1085.9 190.2 L1084.7 191.3 L1073.9 193.5 L1072.0 197.2 L1072.7 200.6 L1075.4 202.5 L1084.4 201.3 L1088.8 201.6 L1093.6 202.6 L1095.6 204.7 L1096.8 209.4 L1095.8 211.8 L1090.7 214.8 L1086.1 216.5 L1082.8 217.9 L1078.5 216.2 L1074.4 211.7 L1072.0 211.1 L1068.5 209.2 L1064.0 204.7 L1061.3 203.1 L1057.4 204.7 L1055.2 209.2 L1055.6 212.0 L1060.4 218.1 L1060.5 220.1 L1058.0 222.1 L1053.4 223.3 L1050.6 225.0 L1050.6 228.2 L1052.3 234.6 L1052.4 237.5 L1047.9 247.2 L1043.9 249.6 L1042.8 251.0 L1041.9 253.1 L1041.8 253.6 L1040.9 260.6 L1041.1 262.3 L1044.2 268.1 L1046.0 269.7 L1052.7 270.1 L1060.2 268.5 L1062.5 268.8 L1063.3 270.6 L1062.7 272.4 L1057.6 278.7 L1059.8 282.1 L1066.7 288.5 L1066.7 290.9 L1065.8 291.8 L1060.0 292.5 L1058.5 294.6 L1058.1 299.4 L1059.9 303.2 L1062.9 305.7 L1063.2 307.4 L1061.8 308.6 L1055.3 308.2 L1054.0 308.8 L1053.0 311.6 L1053.2 316.3 L1055.8 319.6 L1058.3 319.8 L1060.8 318.7 L1062.7 315.4 L1065.4 309.4 L1066.9 308.1 L1068.3 308.0 L1069.8 309.6 L1070.6 316.9 L1071.7 318.8 L1077.0 320.7 L1087.4 322.9 L1088.7 322.9 L1101.3 321.6 L1103.5 323.4 L1106.2 327.0 L1111.2 333.7 L1111.2 334.5 L1110.1 335.3 L1107.4 334.7 L1105.2 334.0 L1104.2 335.0 L1105.6 350.0 L1107.0 352.7 L1113.8 359.8 L1114.5 364.1 L1113.6 365.9 L1102.6 376.2 L1099.9 376.6 L1097.8 375.9 L1091.9 370.9 L1089.6 372.0 L1088.5 373.6 L1088.2 375.6 L1090.4 379.6 L1105.5 383.8 L1118.2 389.3 L1119.2 391.2 L1115.5 399.5 L1115.5 400.6 L1113.4 403.5 L1113.3 405.3 L1119.8 405.7 L1120.7 407.0 L1119.3 410.1 L1116.4 411.9 L1113.2 411.8 L1108.2 408.9 L1107.6 404.0 L1107.9 400.6 L1108.8 392.1 L1107.8 390.3 L1102.3 393.1 L1098.3 396.1 L1095.8 400.6 L1095.1 402.9 L1096.1 409.0 L1099.2 420.1 L1101.4 427.3 L1101.9 433.3 L1101.3 436.0 L1100.0 436.6 L1099.2 435.6 L1098.7 432.6 L1097.0 431.4 L1094.5 433.3 L1090.4 438.4 L1087.2 441.1 L1083.7 446.9 L1093.1 451.3 L1095.2 452.9 L1095.8 454.7 L1094.5 459.7 L1094.7 463.2 L1093.6 468.0 L1090.7 472.6 L1088.2 473.9 L1093.8 480.1 L1094.4 482.8 L1094.0 486.0 L1091.8 487.6 L1089.3 489.1 L1090.7 492.1 L1094.8 491.9 L1097.1 493.8 L1097.1 496.6 L1095.0 504.7 L1095.8 506.3 L1099.2 507.1 L1105.8 504.2 L1109.9 501.0 L1111.6 502.1 L1112.3 506.7 L1111.7 508.3 L1110.3 509.5 L1108.1 510.0 L1102.9 510.3 L1102.8 514.3 L1103.0 516.5 L1104.5 518.3 L1106.3 518.9 L1113.7 518.6 L1115.1 520.7 L1114.9 522.2 L1113.5 523.5 L1109.5 524.6 L1101.4 522.7 L1099.8 524.1 L1099.8 525.0 L1101.4 527.2 L1104.8 529.7 L1104.7 533.2 L1102.3 535.8 L1102.4 536.7 L1106.3 539.8 L1109.5 543.2 L1110.2 545.5 L1103.4 546.7 L1100.3 548.1 L1098.8 550.0 L1099.4 551.1 L1101.0 551.6 L1109.5 550.7 L1113.7 550.7 L1115.1 553.8 L1115.4 553.9 L1118.3 555.0 L1119.4 556.3 L1120.2 557.1 L1122.5 559.4 L1122.5 559.8 L1123.9 564.1 L1125.6 565.8 L1127.4 568.4 L1125.6 574.8 L1125.6 576.3 L1126.5 578.4 L1127.8 578.3 L1130.2 575.0 L1134.1 577.6 L1134.5 579.1 L1133.8 582.4 L1132.7 584.0 L1133.3 585.9 L1138.0 587.5 L1140.1 591.2 L1139.7 595.1 L1137.8 596.6 L1137.8 598.7 L1139.1 600.2 L1141.0 602.5 L1141.7 604.5 L1144.6 605.0 L1146.4 603.3 L1149.9 606.9 L1153.0 607.8 L1154.2 609.9 L1154.5 615.9 L1155.8 617.7 L1155.7 618.9 L1153.8 621.5 L1153.8 623.2 L1155.2 627.2 L1156.4 628.3 L1163.4 628.7 L1169.4 632.7 L1168.9 634.6 L1169.9 635.6 L1174.5 636.8 L1177.1 639.8 L1178.4 642.7 L1181.4 643.7 L1181.1 647.7 L1181.8 649.8 L1181.3 651.3 L1182.6 655.5 L1186.3 658.3 L1187.3 660.8 L1189.1 661.9 L1190.3 665.1 L1191.8 666.9 L1191.9 668.6 L1195.1 674.6 L1202.2 677.5 L1208.9 684.8 L1210.9 686.1 L1213.7 686.3 L1216.7 690.0 L1218.3 698.1 L1217.0 699.9 L1216.6 705.3 L1216.0 706.1 L1217.4 708.0 L1218.6 707.4 L1219.9 708.1 L1220.8 710.0 L1222.3 710.8 L1222.0 712.8 L1222.3 714.7 L1223.0 715.3 L1223.0 718.2 L1224.4 720.8 L1226.3 722.0 L1227.9 723.4 L1227.6 727.6 L1229.5 731.9 L1230.6 734.6 L1235.7 738.5 L1237.7 742.8 L1239.0 744.8 L1237.6 747.6 L1240.3 748.5 L1240.6 750.3 L1242.9 751.6 L1243.9 753.6 L1243.8 754.9 L1246.3 755.9 L1246.6 757.1 L1245.8 758.7 L1246.8 759.3 L1252.9 760.0 L1254.6 760.6 L1256.8 763.5 L1258.4 764.8 L1264.9 764.3 L1265.5 764.6 L1266.6 768.9 L1270.6 769.7 L1272.1 768.1 L1273.8 769.7 L1276.7 770.5 L1278.4 772.5 L1279.1 774.8" fill="none" stroke="#3a4a63" stroke-width="2" stroke-linejoin="round" stroke-linecap="round"  opacity="0.45"/>
<circle cx="1053.8" cy="270.2" r="7" fill="#59d8a0" stroke="#0b111c" stroke-width="2"/>
<text x="1064.8" y="275.2" fill="#59d8a0" font-size="14" font-family="Menlo,monospace" font-weight="bold" text-anchor="start" paint-order="stroke" stroke="#0b111c" stroke-width="4">anchor</text>
<text x="1160" y="436" fill="#5b6b82" font-size="19" text-anchor="middle" font-family="Menlo,monospace">AFTER panel renders here once GEOFANOUT-1 traces this unit</text>
<rect x="808" y="702" width="704" height="94" rx="6" fill="#0b111c" opacity="0.82"/><text x="820" y="718" fill="#93a6c2" font-size="15" font-family="Menlo,monospace" paint-order="stroke" stroke="#0b111c" stroke-width="4">plan  UP   headwater  (high)</text><text x="820" y="742" fill="#93a6c2" font-size="15" font-family="Menlo,monospace" paint-order="stroke" stroke="#0b111c" stroke-width="4">plan  DOWN mouth  (low)</text><text x="820" y="766" fill="#93a6c2" font-size="15" font-family="Menlo,monospace" paint-order="stroke" stroke="#0b111c" stroke-width="4">needs human review: no-endpoint-evidence</text>
<g><line x1="824" y1="680" x2="894.5247227873949" y2="680" stroke="#8ea2bd" stroke-width="2"/><line x1="824" y1="676" x2="824" y2="684" stroke="#8ea2bd" stroke-width="2"/><line x1="894.5247227873949" y1="676" x2="894.5247227873949" y2="684" stroke="#8ea2bd" stroke-width="2"/><text x="859.2623613936975" y="672" fill="#8ea2bd" font-size="13" text-anchor="middle" font-family="Menlo,monospace">5 km</text></g>
</g>
<text x="40" y="878" fill="#5b6b82" font-size="13" font-family="Menlo,monospace">GEOVALID-2 owner review pack · before/after linework · TroutSite NHD flip lane</text>
<text x="1520" y="878" fill="#5b6b82" font-size="13" text-anchor="end" font-family="Menlo,monospace">generated 2026-09-11</text>
</svg>