<svg xmlns="http://www.w3.org/2000/svg" width="1560" height="900" viewBox="0 0 1560 900">
<rect width="1560" height="900" fill="#0b111c"/>
<text x="40" y="44" fill="#e8eef7" font-size="24" font-family="Menlo,monospace" font-weight="bold">Duck River (Normandy tailwater)</text>
<text x="40" y="70" fill="#7488a5" font-size="14" font-family="Menlo,monospace">duck-river-tailwater · tailrace · hu8 pending · termini human review: reach-split-ambiguous</text>
<rect x="1180" y="26" width="340" height="40" rx="20" fill="#33270f"/><text x="1350" y="52" fill="#e8b64c" font-size="16" text-anchor="middle" font-family="Menlo,monospace" font-weight="bold">PENDING FAN-OUT (PLAN SHOWN)</text>
<g>
<rect x="40" y="96" width="720" height="700" rx="10" fill="#111a29"/>
<rect x="40" y="96" width="720" height="700" rx="10" fill="none" stroke="#26354e" stroke-width="1.5"/>
<text x="58" y="130" fill="#e8b64c" font-size="17" font-family="Menlo,monospace" font-weight="bold">BEFORE</text>
<text x="58" y="152" fill="#7488a5" font-size="13" font-family="Menlo,monospace">pre-flip linework · 1 part(s) · 43.28 km · src nhd-hr</text>
<path d="M91.1 378.0 L92.1 381.9 L87.0 397.7 L87.2 416.1 L89.2 421.8 L100.1 430.7 L114.2 447.1 L105.8 465.8 L106.2 471.4 L108.6 474.7 L113.0 473.7 L132.1 456.3 L134.4 455.1 L138.0 448.0 L136.8 443.7 L132.5 440.2 L127.5 426.2 L129.5 415.8 L134.4 413.4 L145.9 411.0 L151.9 409.0 L161.8 400.6 L167.1 397.6 L180.7 404.9 L182.5 424.8 L182.9 426.2 L200.4 441.8 L212.0 445.1 L229.0 440.6 L231.9 437.8 L232.7 433.0 L226.1 425.7 L227.0 412.7 L245.5 411.1 L256.3 405.8 L264.7 405.7 L273.7 405.8 L278.7 409.8 L280.5 413.2 L282.5 421.4 L282.4 432.6 L277.9 445.0 L274.0 446.9 L255.0 456.0 L248.5 461.7 L244.6 467.6 L246.2 472.9 L254.3 478.5 L275.0 474.0 L287.7 475.2 L297.8 481.2 L296.0 494.8 L303.7 510.2 L310.9 514.3 L314.4 515.1 L319.7 511.4 L334.5 492.5 L337.0 486.0 L350.7 480.1 L351.6 475.8 L342.8 468.4 L342.4 459.5 L330.4 445.5 L326.8 432.8 L327.6 426.9 L332.3 420.2 L338.6 418.5 L347.4 419.4 L373.8 432.4 L381.1 436.6 L395.2 451.7 L398.9 452.7 L411.7 451.4 L417.3 448.1 L421.3 438.5 L420.8 412.5 L423.3 402.5 L427.0 397.4 L433.0 392.7 L455.0 396.4 L461.4 395.3 L461.9 392.5 L472.3 392.5 L476.3 390.6 L481.1 387.2 L483.7 385.4 L491.9 384.1 L492.7 391.7 L488.9 398.7 L486.9 405.9 L488.9 410.1 L498.6 400.8 L512.2 403.4 L525.6 428.4 L529.8 431.0 L534.0 424.5 L534.8 422.9 L537.8 420.2 L542.4 418.3 L552.3 420.6 L554.6 437.2 L557.2 438.4 L564.2 435.4 L580.3 426.8 L589.8 420.3 L599.0 413.2 L599.3 409.4 L598.7 405.1 L599.5 400.6 L601.1 396.8 L605.1 387.4 L609.2 387.6 L622.2 394.5 L626.9 400.6 L631.3 402.6 L631.9 402.7 L632.1 402.7 L635.3 401.4 L640.0 403.8 L653.0 418.1 L653.2 418.4 L653.1 421.2 L654.9 423.7 L655.0 425.6 L660.0 425.9 L662.9 430.3 L662.3 437.7 L661.9 440.1 L658.3 444.0 L657.2 449.1 L661.7 459.6 L666.2 463.2 L672.2 464.1 L680.3 470.5 L681.5 472.3 L684.5 476.7 L689.0 480.8 L699.9 482.9 L707.8 478.9 L712.3 473.5 L713.0 468.1 L711.2 461.2 L708.3 455.6 L704.0 438.7 L703.5 437.9" fill="none" stroke="#e8b64c" stroke-width="2.5" stroke-linejoin="round" stroke-linecap="round"  opacity="1"/>
<circle cx="91.2" cy="376.9" r="7" fill="#e8b64c" stroke="#0b111c" stroke-width="2"/>
<text x="102.2" y="381.9" fill="#e8b64c" font-size="14" font-family="Menlo,monospace" font-weight="bold" text-anchor="start" paint-order="stroke" stroke="#0b111c" stroke-width="4">anchor</text>


<g><line x1="64" y1="772" x2="220.5158936255524" y2="772" stroke="#8ea2bd" stroke-width="2"/><line x1="64" y1="768" x2="64" y2="776" stroke="#8ea2bd" stroke-width="2"/><line x1="220.5158936255524" y1="768" x2="220.5158936255524" y2="776" stroke="#8ea2bd" stroke-width="2"/><text x="142.2579468127762" y="764" fill="#8ea2bd" font-size="13" text-anchor="middle" font-family="Menlo,monospace">5 km</text></g>
</g>
<g>
<rect x="800" y="96" width="720" height="700" rx="10" fill="#111a29"/>
<rect x="800" y="96" width="720" height="700" rx="10" fill="none" stroke="#26354e" stroke-width="1.5"/>
<text x="818" y="130" fill="#3a4a63" font-size="17" font-family="Menlo,monospace" font-weight="bold">AFTER</text>
<text x="818" y="152" fill="#7488a5" font-size="13" font-family="Menlo,monospace">NHD reach not traced yet — ghost = current linework</text>
<path d="M851.1 378.0 L852.1 381.9 L847.0 397.7 L847.2 416.1 L849.2 421.8 L860.1 430.7 L874.2 447.1 L865.8 465.8 L866.2 471.4 L868.6 474.7 L873.0 473.7 L892.1 456.3 L894.4 455.1 L898.0 448.0 L896.8 443.7 L892.5 440.2 L887.5 426.2 L889.5 415.8 L894.4 413.4 L905.9 411.0 L911.9 409.0 L921.8 400.6 L927.1 397.6 L940.7 404.9 L942.5 424.8 L942.9 426.2 L960.4 441.8 L972.0 445.1 L989.0 440.6 L991.9 437.8 L992.7 433.0 L986.1 425.7 L987.0 412.7 L1005.5 411.1 L1016.3 405.8 L1024.7 405.7 L1033.7 405.8 L1038.7 409.8 L1040.5 413.2 L1042.5 421.4 L1042.4 432.6 L1037.9 445.0 L1034.0 446.9 L1015.0 456.0 L1008.5 461.7 L1004.6 467.6 L1006.2 472.9 L1014.3 478.5 L1035.0 474.0 L1047.7 475.2 L1057.8 481.2 L1056.0 494.8 L1063.7 510.2 L1070.9 514.3 L1074.4 515.1 L1079.7 511.4 L1094.5 492.5 L1097.0 486.0 L1110.7 480.1 L1111.6 475.8 L1102.8 468.4 L1102.4 459.5 L1090.4 445.5 L1086.8 432.8 L1087.6 426.9 L1092.3 420.2 L1098.6 418.5 L1107.4 419.4 L1133.8 432.4 L1141.1 436.6 L1155.2 451.7 L1158.9 452.7 L1171.7 451.4 L1177.3 448.1 L1181.3 438.5 L1180.8 412.5 L1183.3 402.5 L1187.0 397.4 L1193.0 392.7 L1215.0 396.4 L1221.4 395.3 L1221.9 392.5 L1232.3 392.5 L1236.3 390.6 L1241.1 387.2 L1243.7 385.4 L1251.9 384.1 L1252.7 391.7 L1248.9 398.7 L1246.9 405.9 L1248.9 410.1 L1258.6 400.8 L1272.2 403.4 L1285.6 428.4 L1289.8 431.0 L1294.0 424.5 L1294.8 422.9 L1297.8 420.2 L1302.4 418.3 L1312.3 420.6 L1314.6 437.2 L1317.2 438.4 L1324.2 435.4 L1340.3 426.8 L1349.8 420.3 L1359.0 413.2 L1359.3 409.4 L1358.7 405.1 L1359.5 400.6 L1361.1 396.8 L1365.1 387.4 L1369.2 387.6 L1382.2 394.5 L1386.9 400.6 L1391.3 402.6 L1391.9 402.7 L1392.1 402.7 L1395.3 401.4 L1400.0 403.8 L1413.0 418.1 L1413.2 418.4 L1413.1 421.2 L1414.9 423.7 L1415.0 425.6 L1420.0 425.9 L1422.9 430.3 L1422.3 437.7 L1421.9 440.1 L1418.3 444.0 L1417.2 449.1 L1421.7 459.6 L1426.2 463.2 L1432.2 464.1 L1440.3 470.5 L1441.5 472.3 L1444.5 476.7 L1449.0 480.8 L1459.9 482.9 L1467.8 478.9 L1472.3 473.5 L1473.0 468.1 L1471.2 461.2 L1468.3 455.6 L1464.0 438.7 L1463.5 437.9" fill="none" stroke="#3a4a63" stroke-width="2" stroke-linejoin="round" stroke-linecap="round"  opacity="0.45"/>
<circle cx="851.2" cy="376.9" r="7" fill="#59d8a0" stroke="#0b111c" stroke-width="2"/>
<text x="862.2" y="381.9" fill="#59d8a0" font-size="14" font-family="Menlo,monospace" font-weight="bold" text-anchor="start" paint-order="stroke" stroke="#0b111c" stroke-width="4">anchor</text>
<text x="1160" y="436" fill="#5b6b82" font-size="19" text-anchor="middle" font-family="Menlo,monospace">AFTER panel renders here once GEOFANOUT-1 traces this unit</text>
<rect x="808" y="702" width="704" height="94" rx="6" fill="#0b111c" opacity="0.82"/><text x="820" y="718" fill="#93a6c2" font-size="15" font-family="Menlo,monospace" paint-order="stroke" stroke="#0b111c" stroke-width="4">plan  UP   dam:Normandy Lake  (high)</text><text x="820" y="742" fill="#93a6c2" font-size="15" font-family="Menlo,monospace" paint-order="stroke" stroke="#0b111c" stroke-width="4">plan  DOWN mouth  (low)</text><text x="820" y="766" fill="#93a6c2" font-size="15" font-family="Menlo,monospace" paint-order="stroke" stroke="#0b111c" stroke-width="4">needs human review: reach-split-ambiguous</text>
<g><line x1="824" y1="680" x2="980.5158936255524" y2="680" stroke="#8ea2bd" stroke-width="2"/><line x1="824" y1="676" x2="824" y2="684" stroke="#8ea2bd" stroke-width="2"/><line x1="980.5158936255524" y1="676" x2="980.5158936255524" y2="684" stroke="#8ea2bd" stroke-width="2"/><text x="902.2579468127763" y="672" fill="#8ea2bd" font-size="13" text-anchor="middle" font-family="Menlo,monospace">5 km</text></g>
</g>
<text x="40" y="878" fill="#5b6b82" font-size="13" font-family="Menlo,monospace">GEOVALID-2 owner review pack · before/after linework · TroutSite NHD flip lane</text>
<text x="1520" y="878" fill="#5b6b82" font-size="13" text-anchor="end" font-family="Menlo,monospace">generated 2026-09-11</text>
</svg>